<svg xmlns="http://www.w3.org/2000/svg" width="52.6" height="48.6" viewBox="0 0 52.6 48.6">
  <g id="chatbot" transform="translate(-5.7 -14.605)">
    <path id="Path_22" data-name="Path 22" d="M55,36.9H52v-3a5.006,5.006,0,0,0-5-5H42v-3a1,1,0,0,0-1-1H33V22.763a4,4,0,1,0-2,0V24.9H23a1,1,0,0,0-1,1v3H17a5.006,5.006,0,0,0-5,5v3H9a3,3,0,0,0-3,3v12a3,3,0,0,0,3,3h3v3a5.006,5.006,0,0,0,5,5H47a5.006,5.006,0,0,0,5-5v-3h3a3,3,0,0,0,3-3v-12A3,3,0,0,0,55,36.9Zm-25-18a2,2,0,1,1,2,2A2,2,0,0,1,30,18.9ZM9,52.9a1,1,0,0,1-1-1v-12a1,1,0,0,1,1-1h3v14Zm15-26H40v2H24Zm26,31a3,3,0,0,1-3,3H17a3,3,0,0,1-3-3v-24a3,3,0,0,1,3-3H47a3,3,0,0,1,3,3Zm6-6a1,1,0,0,1-1,1H52v-14h3a1,1,0,0,1,1,1Z" fill="#6824a9" stroke="#6824a9" stroke-width="0.6"/>
    <path id="Path_23" data-name="Path 23" d="M41,46.9H23a1,1,0,0,0-1,1v1a10,10,0,0,0,20,0v-1A1,1,0,0,0,41,46.9Zm-9,10a8.009,8.009,0,0,1-8-8H40A8.009,8.009,0,0,1,32,56.9Z" fill="#6824a9" stroke="#6824a9" stroke-width="0.6"/>
    <path id="Path_24" data-name="Path 24" d="M26,40.9a4,4,0,1,0-4,4A4,4,0,0,0,26,40.9Zm-6,0a2,2,0,1,1,2,2A2,2,0,0,1,20,40.9Z" fill="#6824a9" stroke="#6824a9" stroke-width="0.6"/>
    <path id="Path_25" data-name="Path 25" d="M42,36.9a4,4,0,1,0,4,4A4,4,0,0,0,42,36.9Zm0,6a2,2,0,1,1,2-2A2,2,0,0,1,42,42.9Z" fill="#6824a9" stroke="#6824a9" stroke-width="0.6"/>
  </g>
</svg>
