<svg xmlns="http://www.w3.org/2000/svg" width="40" height="39.999" viewBox="0 0 40 39.999">
  <g id="next_1_" data-name="next (1)" transform="translate(0 0.075)">
    <path id="Path_18" data-name="Path 18" d="M107.427,140.486a.927.927,0,0,0-1.311,1.311l7.024,7.024H94.477a.93.93,0,0,0,0,1.861H113.13l-7.024,7.024a.926.926,0,0,0,0,1.312.914.914,0,0,0,.661.27.953.953,0,0,0,.66-.27l8.605-8.605a.922.922,0,0,0,.27-.661.959.959,0,0,0-.27-.66Zm0,0" transform="translate(-86.569 -129.825)" fill="#fff"/>
    <path id="Path_19" data-name="Path 19" d="M20-.075A20,20,0,1,0,34.143,5.786,20,20,0,0,0,20-.075Zm0,38.142A18.141,18.141,0,1,1,38.143,19.926,18.164,18.164,0,0,1,20,38.068Zm0,0" transform="translate(0 0)" fill="#fff"/>
  </g>
</svg>
