<svg xmlns="http://www.w3.org/2000/svg" width="31" height="29.439" viewBox="0 0 31 29.439">
  <g id="dart" transform="translate(0.153 0.999)">
    <path id="Path_18911" data-name="Path 18911" d="M55.875,54.924,53.988,53.15,54,65.969l.023.6a4,4,0,0,0,.158.93l14.951,4.955L72.864,70.9v0L55.875,54.924" transform="translate(-47.081 -47.452)" fill="#fff"/>
    <path id="Path_18912" data-name="Path 18912" d="M55.615,186.869h0a.124.124,0,0,1,0-.018A.046.046,0,0,0,55.615,186.869Zm18.688,3.4-3.737,1.556-14.95-4.954a6.591,6.591,0,0,0,1.6,2.82l4.879,4.56,10.848.013,1.363-4Z" transform="translate(-47.52 -165.823)" fill="#fff"/>
    <path id="Path_18913" data-name="Path 18913" d="M1.1,61.4c-.483.485-.243,1.485.535,2.221L4.985,66.8l2.11.7a4,4,0,0,1-.158-.93l-.023-.6L6.907,53.15Z" transform="translate(-1 -48.452)" fill="#fff"/>
    <path id="Path_18914" data-name="Path 18914" d="M69.25,53.293a4.946,4.946,0,0,0-.992-.145l-.674-.022-13.6,0L72.867,70.871h0l1.658-3.516L69.25,53.293" transform="translate(-47.081 -47.431)" fill="#fff"/>
    <path id="Path_18915" data-name="Path 18915" d="M187.67,54.654l.018,0h0A.1.1,0,0,0,187.67,54.654Zm3.016,1.509a7.188,7.188,0,0,0-3-1.5l5.277,14.062-1.658,3.516h0l4.052-1.216.009-10.442Z" transform="translate(-164.519 -47.795)" fill="#fff"/>
    <path id="Path_18916" data-name="Path 18916" d="M68.51,3.891,65.129.736c-.782-.728-1.846-.955-2.361-.5L53.988,5.7l13.6,0,.674.022a4.947,4.947,0,0,1,.992.145Z" transform="translate(-48.081 -1)" fill="#fff"/>
  </g>
</svg>
