<svg xmlns="http://www.w3.org/2000/svg" width="52.524" height="52.513" viewBox="0 0 52.524 52.513">
  <g id="Page-1" transform="translate(0.25 0.236)">
    <g id="_025---Cloud-Connections" data-name="025---Cloud-Connections" transform="translate(0 0.027)">
      <path id="Shape" d="M40.07,8.8a1,1,0,0,0,1.52-1.31A10,10,0,0,0,34,4a1,1,0,0,0,0,2,8,8,0,0,1,6.07,2.8Z" transform="translate(-5.144 -0.027)" fill="#6824a9" stroke="#6824a9" stroke-width="0.5"/>
      <path id="Shape-2" data-name="Shape" d="M41.619,32.952a10.4,10.4,0,0,0,0-20.809,12.139,12.139,0,0,0-23.5-4.257,8.61,8.61,0,0,0-6.572,4.335,10.136,10.136,0,0,0-1.145-.078,10.4,10.4,0,0,0,0,20.809h5.2v6.069a.867.867,0,0,1-.867.867h-2.6v-2.6a2.6,2.6,0,0,0-2.6-2.6H2.6a2.6,2.6,0,0,0-2.6,2.6v6.936a2.6,2.6,0,0,0,2.6,2.6H9.538a2.6,2.6,0,0,0,2.6-2.6v-2.6h2.6a2.6,2.6,0,0,0,2.6-2.6V32.952h7.8v6.936h-2.6a2.6,2.6,0,0,0-2.6,2.6v6.936a2.6,2.6,0,0,0,2.6,2.6H29.48a2.6,2.6,0,0,0,2.6-2.6V42.49a2.6,2.6,0,0,0-2.6-2.6h-2.6V32.952h7.8v6.069a2.6,2.6,0,0,0,2.6,2.6h2.6v2.6a2.6,2.6,0,0,0,2.6,2.6h6.936a2.6,2.6,0,0,0,2.6-2.6V37.287a2.6,2.6,0,0,0-2.6-2.6H42.486a2.6,2.6,0,0,0-2.6,2.6v2.6h-2.6a.867.867,0,0,1-.867-.867V32.952ZM10.4,44.224a.867.867,0,0,1-.867.867H2.6a.867.867,0,0,1-.867-.867V37.287A.867.867,0,0,1,2.6,36.42H9.538a.867.867,0,0,1,.867.867ZM30.347,42.49v6.936a.867.867,0,0,1-.867.867H22.544a.867.867,0,0,1-.867-.867V42.49a.867.867,0,0,1,.867-.867H29.48A.867.867,0,0,1,30.347,42.49Zm11.272-5.2a.867.867,0,0,1,.867-.867h6.936a.867.867,0,0,1,.867.867v6.936a.867.867,0,0,1-.867.867H42.486a.867.867,0,0,1-.867-.867Zm-14.74-6.069V26.761a3.468,3.468,0,1,0-1.734,0v4.457h-7.8V26.761a3.468,3.468,0,1,0-1.734,0v4.457H10.4a8.671,8.671,0,1,1,0-17.341,8.558,8.558,0,0,1,4.8,1.457.875.875,0,0,0,.971-1.457,10.266,10.266,0,0,0-2.827-1.327,6.936,6.936,0,0,1,5.471-3.009h.191a6.668,6.668,0,0,1,4.223,1.387.867.867,0,1,0,1.04-1.387A8.593,8.593,0,0,0,20,7.859a10.4,10.4,0,0,1,19.882,4.283v.147a10.24,10.24,0,0,0-4.041,1.587.868.868,0,0,0,.971,1.439,8.558,8.558,0,0,1,4.8-1.439,8.671,8.671,0,0,1,0,17.341h-5.2V26.761a3.468,3.468,0,1,0-1.734,0v4.457Zm-.867-7.8a.867.867,0,0,0-.867.867v.624a1.734,1.734,0,1,1,1.734,0v-.624A.867.867,0,0,0,26.012,23.414Zm-9.538,0a.867.867,0,0,0-.867.867v.624a1.734,1.734,0,1,1,1.734,0v-.624A.867.867,0,0,0,16.474,23.414Zm19.075,0a.867.867,0,0,0-.867.867v.624a1.734,1.734,0,1,1,1.734,0v-.624A.867.867,0,0,0,35.549,23.414Z" transform="translate(0 -0.027)" fill="#6824a9" stroke="#6824a9" stroke-width="0.5"/>
    </g>
  </g>
</svg>
