<svg xmlns="http://www.w3.org/2000/svg" width="23.913" height="44.475" viewBox="0 0 23.913 44.475">
  <g id="java-4" transform="translate(-6.527 -4.399)">
    <path id="Path_20589" data-name="Path 20589" d="M283.234,429.9h-.167V429.8h.451v.094h-.166v.468h-.117Zm.9.024h0l-.166.443h-.076l-.165-.443h0v.443h-.11v-.561h.162l.153.4.152-.4h.162v.561h-.108Z" transform="translate(-253.802 -390.428)" fill="#fff"/>
    <path id="Path_20590" data-name="Path 20590" d="M76.209,254.044s-1.166.678.83.907a17.457,17.457,0,0,0,6.317-.268,10.991,10.991,0,0,0,1.679.82c-5.972,2.559-13.516-.148-8.825-1.459m-.73-3.34s-1.308.968.689,1.174a24.644,24.644,0,0,0,8.15-.391,3.618,3.618,0,0,0,1.256.765c-7.22,2.111-15.263.166-10.1-1.549" transform="translate(-61.776 -226.053)" fill="#fff"/>
    <path id="Path_20591" data-name="Path 20591" d="M153.56,88.534c1.471,1.694-.387,3.219-.387,3.219s3.736-1.929,2.02-4.344c-1.6-2.253-2.832-3.372,3.822-7.23,0,0-10.443,2.608-5.455,8.356" transform="translate(-133.705 -69.548)" fill="#fff"/>
    <path id="Path_20592" data-name="Path 20592" d="M35.122,214.6s.863.711-.95,1.261c-3.447,1.044-14.347,1.36-17.375.042-1.088-.474.953-1.131,1.595-1.269a4.141,4.141,0,0,1,1.052-.118c-1.21-.853-7.824,1.674-3.359,2.4,12.176,1.975,22.2-.889,19.037-2.314m-12.76-9.271s-5.544,1.317-1.963,1.8a41.645,41.645,0,0,0,7.334-.079c2.295-.194,4.6-.6,4.6-.6a9.737,9.737,0,0,0-1.394.746c-5.63,1.481-16.507.792-13.376-.723a10.491,10.491,0,0,1,4.8-1.135m9.946,5.559c5.723-2.974,3.077-5.832,1.23-5.447a4.283,4.283,0,0,0-.655.176,1.044,1.044,0,0,1,.489-.377c3.654-1.285,6.464,3.789-1.18,5.8a.5.5,0,0,0,.115-.15" transform="translate(-7.368 -184.137)" fill="#fff"/>
    <path id="Path_20593" data-name="Path 20593" d="M109.784,4.4s3.17,3.171-3.006,8.047c-4.953,3.911-1.129,6.141,0,8.689-2.891-2.608-5.012-4.9-3.589-7.041,2.089-3.137,7.876-4.658,6.6-9.694" transform="translate(-88.295)" fill="#fff"/>
    <path id="Path_20594" data-name="Path 20594" d="M68.2,343.054c5.494.352,13.93-.2,14.13-2.795,0,0-.384.985-4.54,1.768a45.171,45.171,0,0,1-13.9.214s.7.581,4.313.813" transform="translate(-52.642 -308.245)" fill="#fff"/>
    <path id="Path_20595" data-name="Path 20595" d="M14.656,407.354a2.494,2.494,0,0,1-1.557.7.993.993,0,0,1-1.08-1.095c0-.729.406-1.263,2.034-1.263h.6v1.656m1.43,1.613v-4.994c0-1.276-.728-2.118-2.482-2.118a6.539,6.539,0,0,0-2.651.576l.21.884a6.161,6.161,0,0,1,2.047-.407c1.011,0,1.445.407,1.445,1.248v.631h-.5c-2.456,0-3.563.953-3.563,2.384,0,1.235.73,1.937,2.1,1.937a3.174,3.174,0,0,0,2.16-.9l.112.758Zm4.772,0H19.075l-2.147-6.986h1.558l1.332,4.292.3,1.291a26.836,26.836,0,0,0,1.389-5.583h1.515a28.371,28.371,0,0,1-2.16,6.986m6.842-1.613a2.5,2.5,0,0,1-1.559.7.993.993,0,0,1-1.08-1.095c0-.729.407-1.263,2.035-1.263h.6v1.656m1.43,1.613v-4.994c0-1.276-.729-2.118-2.482-2.118A6.538,6.538,0,0,0,24,402.43l.21.884a6.171,6.171,0,0,1,2.048-.407c1.01,0,1.445.407,1.445,1.248v.631H27.2c-2.456,0-3.564.953-3.564,2.384,0,1.235.729,1.937,2.1,1.937a3.178,3.178,0,0,0,2.161-.9l.112.758H29.13ZM9.02,410.153a3.757,3.757,0,0,1-1.787,1.333l-.706-.831a2.964,2.964,0,0,0,1.238-1.16,4.48,4.48,0,0,0,.267-2.023V399.5H9.552v7.866a4.553,4.553,0,0,1-.532,2.79" transform="translate(0 -362.612)" fill="#fff"/>
  </g>
</svg>
