<svg xmlns="http://www.w3.org/2000/svg" width="29" height="26" viewBox="0 0 29 26">
  <g id="Laravel" transform="translate(-958.099 -1682.53)">
    <path id="laravel-1" d="M28.889,12.134c-.207-.271-2.861-4.649-3.309-5.371-.483-.722-.689-.587-1-.542s-3.654.812-4.033.858c-.379.09-.62.271-.379.722.207.406,2.413,4.469,2.9,5.416l-8.79,2.753L7.311.669c-.276-.542-.345-.722-.965-.677S.865.579.521.579C.176.624-.2.8.142,1.888S6,18.5,6.139,18.949a1.157,1.157,0,0,0,1.482.9c.965-.316,4.274-1.444,6.1-2.076.965,2.257,2.9,6.861,3.275,7.538.483.9.827.722,1.551.451.586-.226,9.031-4.2,9.41-4.423s.62-.361.345-.858c-.207-.361-2.413-4.288-3.585-6.319.793-.271,3.654-1.264,3.964-1.4C29.027,12.63,29.1,12.4,28.889,12.134ZM12.93,16.422c-.1.045-5.033,1.58-5.274,1.67-.276.09-.276.045-.276-.09C7.311,17.866,1.52,2.158,1.417,1.978c-.069-.181-.069-.361,0-.361s4.653-.542,4.791-.542c.172,0,.138.045.207.181,0,0,6.446,14.579,6.549,14.8.138.226.069.316-.034.361Zm13.857,3.385c.069.181.172.271-.1.361-.241.135-8.307,3.7-8.48,3.791s-.276.135-.483-.271-2.827-6.319-2.827-6.319l8.583-2.934c.207-.09.276-.135.414.135.138.316,2.827,5.1,2.9,5.236Zm.552-7.944c-.207.045-3.344,1.083-3.344,1.083l-2.585-4.6c-.069-.135-.138-.271.034-.316s3.1-.722,3.24-.767.241-.09.414.226c.172.271,2.378,3.972,2.482,4.107s-.034.226-.241.271Z" transform="translate(958.094 1682.545)" fill="#fff"/>
  </g>
</svg>
