<svg xmlns="http://www.w3.org/2000/svg" width="236.958" height="26" viewBox="0 0 236.958 26">
  <g id="Logo" transform="translate(-3.517 -94.85)">
    <path id="Path_9" data-name="Path 9" d="M1344.785,147.227a16.762,16.762,0,0,1-3.579-2.218,20.011,20.011,0,0,1-1.454-1.837,14.241,14.241,0,0,1-1.708-5.224,14.5,14.5,0,0,1,.969-6.847.383.383,0,0,0,.17-.359,1.426,1.426,0,0,0,.419-.718,10.49,10.49,0,0,1,4.542-4.177c.162-.072.768.091.346.492C1338,136.342,1344.785,147.227,1344.785,147.227Z" transform="translate(-1136.084 -26.377)" fill="#fff" fill-rule="evenodd"/>
    <path id="Path_10" data-name="Path 10" d="M25.273,157.365V144.575c0-2.572-1.1-4.161-3.669-4.161a6.779,6.779,0,0,0-5.221,3.1v13.85h-2V144.575c0-2.572-1.061-4.161-3.635-4.161a7.023,7.023,0,0,0-5.259,3.139v13.813H3.517V139.09H5.484v2.762a8.042,8.042,0,0,1,5.9-3.217,4.6,4.6,0,0,1,4.8,3.444,7.591,7.591,0,0,1,6.054-3.444c3.37,0,5,1.893,5,5.562v13.168Z" transform="translate(0 -37.276)" fill="#fff"/>
    <path id="Path_11" data-name="Path 11" d="M266.792,103.707a1.51,1.51,0,0,1,1.513-1.476,1.487,1.487,0,0,1,1.513,1.476,1.518,1.518,0,0,1-1.513,1.513A1.541,1.541,0,0,1,266.792,103.707Zm.527,22.666V108.1h1.969v18.276Z" transform="translate(-224.139 -6.284)" fill="#fff"/>
    <path id="Path_12" data-name="Path 12" d="M403.11,157.365V144.992c0-3.518-1.777-4.578-4.426-4.578a7.823,7.823,0,0,0-5.94,3.139v13.813h-1.969V139.09h1.969v2.762a9.263,9.263,0,0,1,6.583-3.217c3.708,0,5.752,1.817,5.752,5.94v12.791Z" transform="translate(-329.692 -37.276)" fill="#fff"/>
    <path id="Path_13" data-name="Path 13" d="M601.828,120.089v-2.915a7.783,7.783,0,0,1-6.358,3.369c-4.842,0-8.135-3.709-8.135-9.573,0-5.789,3.293-9.612,8.135-9.612a7.7,7.7,0,0,1,6.358,3.407V94.85h2v25.239Zm0-4.579v-9.042a7.3,7.3,0,0,0-6.017-3.33c-4.049,0-6.394,3.405-6.394,7.832s2.346,7.794,6.394,7.794A7.329,7.329,0,0,0,601.828,115.51Z" transform="translate(-497.034)" fill="#fff"/>
    <path id="Path_14" data-name="Path 14" d="M794.843,154.906l1.173-1.437a7.618,7.618,0,0,0,5.9,2.687c3.063,0,4.878-1.59,4.878-3.708,0-5-11.54-2.158-11.54-8.741,0-2.8,2.384-5.071,6.509-5.071a8.408,8.408,0,0,1,6.546,2.686l-1.1,1.4a6.661,6.661,0,0,0-5.45-2.422c-2.837,0-4.54,1.438-4.54,3.328,0,4.579,11.5,1.78,11.5,8.819,0,2.95-2.271,5.372-6.848,5.372A8.763,8.763,0,0,1,794.843,154.906Z" transform="translate(-673.695 -37.276)" fill="#fff"/>
    <path id="Path_15" data-name="Path 15" d="M973.548,127.843V114.827h-3.027v-1.741h3.027v-5h2.005v5h3.708v1.741h-3.708V127.54c0,1.475.607,2.5,1.891,2.5a2.852,2.852,0,0,0,2.045-.869l.757,1.513a4.108,4.108,0,0,1-3.1,1.135C974.721,131.816,973.548,130.34,973.548,127.843Z" transform="translate(-823.259 -11.273)" fill="#fff"/>
    <path id="Path_16" data-name="Path 16" d="M1130.272,157.365v-2.156a7.964,7.964,0,0,1-6.206,2.61,6.122,6.122,0,0,1-6.4-6.09c0-3.975,3.218-6.055,6.4-6.055a7.907,7.907,0,0,1,6.206,2.61v-3.71c0-2.723-2.193-4.2-4.882-4.2a7.129,7.129,0,0,0-5.75,2.688l-1.1-1.363a8.88,8.88,0,0,1,7.04-3.065c3.706,0,6.658,1.779,6.658,5.866v12.865Zm0-3.594v-4.011a6.75,6.75,0,0,0-5.527-2.535c-2.986,0-4.995,1.929-4.995,4.54,0,2.572,2.008,4.5,4.995,4.5A6.83,6.83,0,0,0,1130.272,153.772Z" transform="translate(-948.534 -37.276)" fill="#fff"/>
    <path id="Path_17" data-name="Path 17" d="M1506.927,120.089l-7.3-8.7-3.407,3.216v5.487h-1.966V94.85h1.966v17.406l10.748-10.442h2.646l-8.511,8.249,8.477,10.027Z" transform="translate(-1269.139)" fill="#fff"/>
  </g>
</svg>
