<svg xmlns="http://www.w3.org/2000/svg" width="48.7" height="48.7" viewBox="0 0 48.7 48.7">
  <g id="app_2_" data-name="app (2)" transform="translate(0.35 0.35)">
    <g id="Group_53" data-name="Group 53">
      <g id="Group_52" data-name="Group 52">
        <path id="Path_26" data-name="Path 26" d="M1.548,6.194H26.323V7.742h1.548V3.871A3.875,3.875,0,0,0,24,0H3.871A3.875,3.875,0,0,0,0,3.871V38.71H1.548Zm0-2.323A2.325,2.325,0,0,1,3.871,1.548H24a2.325,2.325,0,0,1,2.323,2.323v.774H1.548Z" fill="#6824a9" stroke="#6824a9" stroke-width="0.7"/>
        <path id="Path_27" data-name="Path 27" d="M0,419.871a3.875,3.875,0,0,0,3.871,3.871H24a3.875,3.875,0,0,0,3.871-3.871V416H0Zm1.548-2.323H26.323v2.323A2.325,2.325,0,0,1,24,422.194H3.871a2.325,2.325,0,0,1-2.323-2.323Z" transform="translate(0 -375.742)" fill="#6824a9" stroke="#6824a9" stroke-width="0.7"/>
        <rect id="Rectangle_28" data-name="Rectangle 28" width="7.742" height="1.548" transform="translate(10.065 43.355)" fill="#6824a9" stroke="#6824a9" stroke-width="0.7"/>
        <path id="Path_28" data-name="Path 28" d="M316.645,248a4.645,4.645,0,1,0,4.645,4.645A4.65,4.65,0,0,0,316.645,248Zm0,7.742a3.1,3.1,0,1,1,3.1-3.1A3.1,3.1,0,0,1,316.645,255.742Z" transform="translate(-281.806 -224)" fill="#6824a9" stroke="#6824a9" stroke-width="0.7"/>
        <path id="Path_29" data-name="Path 29" d="M99.871,144a3.871,3.871,0,1,0,3.871,3.871A3.875,3.875,0,0,0,99.871,144Zm0,6.194a2.323,2.323,0,1,1,2.323-2.323A2.325,2.325,0,0,1,99.871,150.194Z" transform="translate(-86.71 -130.065)" fill="#6824a9" stroke="#6824a9" stroke-width="0.7"/>
        <path id="Path_30" data-name="Path 30" d="M62.119,157.7q.214-.081.425-.178l2.4,1.6,3.087-3.087-1.6-2.4q.1-.213.178-.425l2.826-.565v-4.366l-2.826-.565a8.18,8.18,0,0,0-.384-.845l-1.37.721a6.176,6.176,0,0,1,.43,1.027l.137.439,2.465.493v1.827l-2.466.493-.137.439a6.138,6.138,0,0,1-.43,1.027l-.214.407,1.4,2.1-1.291,1.292-2.1-1.4-.406.214a6.184,6.184,0,0,1-1.027.43l-.438.137-.493,2.465H58.457l-.493-2.465-.438-.137a6.184,6.184,0,0,1-1.027-.43l-.406-.214-2.1,1.4-1.74-1.741-1.095,1.095,2.638,2.638,2.4-1.6q.211.1.425.178l.565,2.826h4.366Z" transform="translate(-46.209 -132.659)" fill="#6824a9" stroke="#6824a9" stroke-width="0.7"/>
        <path id="Path_31" data-name="Path 31" d="M32,87.881v4.366l2.826.565a8.179,8.179,0,0,0,.384.845l1.37-.721a6.177,6.177,0,0,1-.43-1.027l-.137-.439-2.465-.493V89.151l2.466-.493.137-.439a6.139,6.139,0,0,1,.43-1.027l.214-.407-1.4-2.1L36.689,83.4l2.1,1.4.406-.214a6.2,6.2,0,0,1,1.026-.43l.438-.137.493-2.465h1.828l.493,2.465.438.137a6.174,6.174,0,0,1,1.026.43l.406.214,2.1-1.4,1.741,1.741,1.095-1.095L47.637,81.4l-2.4,1.6c-.142-.064-.283-.123-.425-.178L44.247,80H39.881l-.565,2.826c-.142.055-.283.114-.425.178l-2.4-1.6L33.4,84.491l1.6,2.4q-.1.213-.178.425Z" transform="translate(-28.903 -72.258)" fill="#6824a9" stroke="#6824a9" stroke-width="0.7"/>
        <rect id="Rectangle_29" data-name="Rectangle 29" width="1.548" height="1.548" transform="translate(12.387 29.419)" fill="#6824a9" stroke="#6824a9" stroke-width="0.7"/>
        <rect id="Rectangle_30" data-name="Rectangle 30" width="1.548" height="1.548" transform="translate(12.387 32.516)" fill="#6824a9" stroke="#6824a9" stroke-width="0.7"/>
        <rect id="Rectangle_31" data-name="Rectangle 31" width="1.548" height="1.548" transform="translate(12.387 35.613)" fill="#6824a9" stroke="#6824a9" stroke-width="0.7"/>
        <rect id="Rectangle_32" data-name="Rectangle 32" width="1.548" height="1.548" transform="translate(34.065 12.387)" fill="#6824a9" stroke="#6824a9" stroke-width="0.7"/>
        <rect id="Rectangle_33" data-name="Rectangle 33" width="1.548" height="1.548" transform="translate(34.065 9.29)" fill="#6824a9" stroke="#6824a9" stroke-width="0.7"/>
        <rect id="Rectangle_34" data-name="Rectangle 34" width="1.548" height="1.548" transform="translate(34.065 6.194)" fill="#6824a9" stroke="#6824a9" stroke-width="0.7"/>
        <path id="Path_32" data-name="Path 32" d="M270.959,258.045V252.13l-3.818-.763q-.134-.336-.293-.663l-1.393.677a8.249,8.249,0,0,1,.379.914l.146.419,3.431.686v3.375l-3.431.687-.146.419a8.334,8.334,0,0,1-.379.914l-.194.4,1.942,2.913-2.387,2.387-2.914-1.942-.4.194a8.193,8.193,0,0,1-.914.379l-.419.146-.685,3.43H256.11l-.687-3.431-.419-.146a8.339,8.339,0,0,1-.914-.379l-.4-.194-2.914,1.942-2.836-2.835-1.095,1.095,3.734,3.733,3.24-2.16c.084.036.17.072.255.106l.764,3.818h5.916l.763-3.818c.085-.034.17-.07.255-.106l3.24,2.16L269.2,262.3l-2.161-3.241c.036-.084.072-.17.106-.255Z" transform="translate(-222.959 -226.442)" fill="#6824a9" stroke="#6824a9" stroke-width="0.7"/>
        <path id="Path_33" data-name="Path 33" d="M225.763,165.946l2.161,3.24c-.036.084-.072.17-.106.255L224,170.2v5.916l3.818.763q.134.336.293.663l1.393-.677a8.193,8.193,0,0,1-.379-.914l-.146-.419-3.431-.686v-3.375l3.431-.687.146-.419a8.406,8.406,0,0,1,.379-.914l.194-.4-1.942-2.913,2.387-2.387,2.913,1.942.4-.194a8.339,8.339,0,0,1,.915-.381l.417-.146.684-3.429h3.376l.686,3.43.417.146a8.4,8.4,0,0,1,.915.381l.4.194,2.913-1.942,2.836,2.836,1.095-1.095-3.734-3.733-3.241,2.16c-.084-.036-.169-.071-.254-.105L240.118,160H234.2l-.763,3.818c-.085.034-.17.069-.254.105l-3.241-2.16Z" transform="translate(-202.323 -144.516)" fill="#6824a9" stroke="#6824a9" stroke-width="0.7"/>
      </g>
    </g>
  </g>
</svg>
