<svg xmlns="http://www.w3.org/2000/svg" width="35" height="35" viewBox="0 0 35 35">
  <g id="twitter-3" transform="translate(-125.944 -1.781)">
    <circle id="Ellipse_2" data-name="Ellipse 2" cx="17" cy="17" r="17" transform="translate(126.444 2.281)" fill="rgba(255,255,255,0)" stroke="#ccc" stroke-width="1"/>
    <path id="Path_21" data-name="Path 21" d="M250.115,145.054a7.372,7.372,0,0,1-2.121.582,3.7,3.7,0,0,0,1.624-2.043,7.376,7.376,0,0,1-2.345.9,3.694,3.694,0,0,0-6.387,2.527,3.735,3.735,0,0,0,.1.842A10.485,10.485,0,0,1,233.369,144a3.7,3.7,0,0,0,1.143,4.93,3.676,3.676,0,0,1-1.673-.462v.047a3.694,3.694,0,0,0,2.962,3.62,3.674,3.674,0,0,1-.973.129,3.748,3.748,0,0,1-.7-.065,3.7,3.7,0,0,0,3.449,2.564,7.435,7.435,0,0,1-5.467,1.529,10.5,10.5,0,0,0,16.166-8.846q0-.24-.011-.478A7.524,7.524,0,0,0,250.115,145.054Z" transform="translate(-97.673 -131.042)" fill="#ccc"/>
  </g>
</svg>
