<svg xmlns="http://www.w3.org/2000/svg" width="54.919" height="46.4" viewBox="0 0 54.919 46.4">
  <g id="ux_1_" data-name="ux (1)" transform="translate(0.2 3.2)">
    <path id="Path_37" data-name="Path 37" d="M53.454,5.306H49.407V1.286A1.065,1.065,0,0,0,48.343.221H43.657V-1.935A1.065,1.065,0,0,0,42.593-3H11.926a1.065,1.065,0,0,0-1.065,1.065V.221H6.176A1.065,1.065,0,0,0,5.111,1.286v4.02H1.065A1.065,1.065,0,0,0,0,6.37V33.63a1.065,1.065,0,0,0,1.065,1.065H5.111v4.073a1.065,1.065,0,0,0,1.065,1.065h4.685v2.1A1.065,1.065,0,0,0,11.926,43H42.593a1.065,1.065,0,0,0,1.065-1.065v-2.1h4.685a1.065,1.065,0,0,0,1.065-1.065V34.694h4.046a1.065,1.065,0,0,0,1.065-1.065V6.37A1.065,1.065,0,0,0,53.454,5.306ZM35.225,18.722,30.633,14.13,36.164,8.6l5.364,5.364v4.759Zm-22.234,0V3.815H41.528v7.137L36.916,6.34a1.064,1.064,0,0,0-1.505,0l-6.284,6.284-1.772-1.772a1.065,1.065,0,0,0-1.506,0l-7.869,7.87ZM26.6,13.112l5.611,5.611H20.992ZM41.528-.87V1.685H12.991V-.87ZM7.241,37.7V24.259a1.065,1.065,0,0,0-2.13,0v8.306H2.13V7.435H5.111v8.27a1.065,1.065,0,0,0,2.13,0V2.35h3.62V37.7Zm5.75,3.168V20.852H41.528V40.87ZM47.278,37.7h-3.62V2.35h3.62Zm5.111-5.137H49.407V7.435h2.981Zm0,0" transform="translate(0 0)" fill="#6824a9" stroke="#6824a9" stroke-width="0.4"/>
    <path id="Path_38" data-name="Path 38" d="M61.065,250.488a1.065,1.065,0,1,0,.753.312A1.072,1.072,0,0,0,61.065,250.488Zm0,0" transform="translate(-54.889 -231.895)" fill="#6824a9" stroke="#6824a9" stroke-width="0.4"/>
    <path id="Path_39" data-name="Path 39" d="M204.861,302.664h-21.3a1.065,1.065,0,0,0-1.065,1.065v4.259a1.064,1.064,0,0,0,1.065,1.065h21.3a1.064,1.064,0,0,0,1.065-1.065v-4.259A1.065,1.065,0,0,0,204.861,302.664Zm-1.065,4.259H184.63v-2.13H203.8Zm0,0" transform="translate(-166.954 -279.626)" fill="#6824a9" stroke="#6824a9" stroke-width="0.4"/>
    <path id="Path_40" data-name="Path 40" d="M433.565,407.84a1.066,1.066,0,1,0,.753.312A1.067,1.067,0,0,0,433.565,407.84Zm0,0" transform="translate(-395.657 -375.842)" fill="#6824a9" stroke="#6824a9" stroke-width="0.4"/>
    <path id="Path_41" data-name="Path 41" d="M183.565,409.966H200.6a1.065,1.065,0,0,0,0-2.13H183.565a1.065,1.065,0,0,0,0,2.13Zm0,0" transform="translate(-166.954 -375.839)" fill="#6824a9" stroke="#6824a9" stroke-width="0.4"/>
    <path id="Path_42" data-name="Path 42" d="M204.861,459.914h-21.3a1.065,1.065,0,0,0,0,2.13h21.3a1.065,1.065,0,0,0,0-2.13Zm0,0" transform="translate(-166.954 -423.481)" fill="#6824a9" stroke="#6824a9" stroke-width="0.4"/>
    <path id="Path_43" data-name="Path 43" d="M182.439,99.473a3.3,3.3,0,1,0,3.3,3.3A3.306,3.306,0,0,0,182.439,99.473Zm0,4.475a1.172,1.172,0,1,1,1.173-1.173A1.174,1.174,0,0,1,182.439,103.947Zm0,0" transform="translate(-163.877 -93.744)" fill="#6824a9" stroke="#6824a9" stroke-width="0.4"/>
  </g>
</svg>
