<svg xmlns="http://www.w3.org/2000/svg" width="29.266" height="28.587" viewBox="0 0 29.266 28.587">
  <g id="XD" transform="translate(1 1)">
    <path id="Path_20206" data-name="Path 20206" d="M40.7,44.845H23.086a4.823,4.823,0,0,1-4.828-4.828V23.086a4.823,4.823,0,0,1,4.828-4.828H40.7a4.823,4.823,0,0,1,4.823,4.828v16.93A4.823,4.823,0,0,1,40.7,44.845Z" transform="translate(-18.257 -18.257)" fill="none" stroke="#fff" stroke-miterlimit="10" stroke-width="2"/>
    <path id="Path_20207" data-name="Path 20207" d="M118.464,144.591l2.587,4.97c.046.073.018.148-.056.148h-1.607a.181.181,0,0,1-.194-.12c-.591-1.22-1.192-2.439-1.811-3.751h-.019c-.554,1.239-1.165,2.541-1.755,3.761a.178.178,0,0,1-.167.1h-1.523c-.092,0-.1-.074-.055-.127l2.53-4.824-2.447-4.881a.075.075,0,0,1,.055-.127h1.59a.147.147,0,0,1,.166.1c.582,1.22,1.174,2.477,1.728,3.705h.018c.536-1.22,1.127-2.486,1.7-3.7.046-.073.073-.12.167-.12h1.49c.073,0,.1.056.056.127Zm3.04,1.506a3.616,3.616,0,0,1,3.705-3.834,4.135,4.135,0,0,1,.481.018v-2.448a.092.092,0,0,1,.092-.092h1.46c.073,0,.092.028.092.074V148.3a6.591,6.591,0,0,0,.046.905c0,.056-.019.074-.074.1a5.5,5.5,0,0,1-2.365.536c-2.006.008-3.438-1.229-3.438-3.743Zm4.185-2.365a1.4,1.4,0,0,0-.536-.092c-1.165,0-1.978.9-1.978,2.384,0,1.7.833,2.384,1.876,2.384a1.731,1.731,0,0,0,.638-.1v-4.574Z" transform="translate(-106.745 -131.265)" fill="#fff"/>
  </g>
</svg>
